<svg id="Layer_1" data-name="Layer 1" xmlns="http://www.w3.org/2000/svg" xmlns:xlink="http://www.w3.org/1999/xlink" viewBox="0 0 951.48 904.13"><defs><clipPath id="clip-path" transform="translate(0 0)"><polygon points="951.48 0 770.98 854.2 0 854.2 180.21 0 951.48 0" style="fill:none"/></clipPath></defs><title>logo-icon</title><polygon points="951.48 0 770.98 854.2 0 854.2 180.21 0 951.48 0" style="fill:#fff"/><path d="M685.8,364.23a88.38,88.38,0,1,0-88.38-88.38,88.38,88.38,0,0,0,88.38,88.38M664,275.85a21.81,21.81,0,1,1,21.81,21.81h0A21.83,21.83,0,0,1,664,275.85" transform="translate(0 0)" style="fill:#161616"/><path d="M304.56,584.05l-2.1-11.31-60.34,65.75L137.63,544.76,93.17,594.33,246,731.39l83.78-90.71L327,636.87a130.49,130.49,0,0,1-22.48-52.82" transform="translate(0 0)" style="fill:#161616"/><g style="clip-path:url(#clip-path)"><path d="M658.48,415,437.64,221,307.26,363.71l49.17,44.9,86.32-94.52L495,360,368.45,500.69a88.6,88.6,0,0,0,6.24,124.46L493.19,733,381.52,860.13l50,44L586.39,727.8,485,635.49l107-119V617.7H772.9V551.1H658.48Zm-80.74,17.7-142,158L419.5,575.91A21.86,21.86,0,0,1,418,545.2L545,403.9Z" transform="translate(0 0)" style="fill:#161616"/></g></svg>