<svg xmlns="http://www.w3.org/2000/svg" xmlns:xlink="http://www.w3.org/1999/xlink" viewBox="0 0 1078.29 498.96"><defs><clipPath id="clip-path" transform="translate(-0.71 0)"><path d="M385.34,242.41l-129-113.34-76.16,83.38,28.73,26.23,50.42-55.21,30.49,26.79-73.89,82.2a51.77,51.77,0,0,0,3.64,72.71l69.22,63-65.23,74.26,29.22,25.66,90.46-103L284,371.21l62.47-69.49v59.09H452.12v-38.9H385.34Zm-47.15,10.33-83,92.28-9.47-8.62a12.77,12.77,0,0,1-.9-17.93L319,235.93Z" style="fill:none"/></clipPath></defs><title>final logos-03</title><g id="bg-box"><polygon points="555.78 0 450.35 498.96 0 498.96 105.26 0 555.78 0" style="fill:#fff"/></g><g id="figure"><g id="figure-2" data-name="figure"><path d="M401.3,212.76a51.63,51.63,0,1,0-51.63-51.63,51.64,51.64,0,0,0,51.63,51.63m-12.74-51.63a12.74,12.74,0,1,1,12.74,12.74h0a12.76,12.76,0,0,1-12.74-12.74" transform="translate(-0.71 0)" style="fill:#161616"/><g style="clip-path:url(#clip-path)"><polygon points="555.78 0 450.35 498.96 0 498.96 105.26 0 555.78 0" style="fill:#161616"/></g><path d="M178.61,341.16l-1.23-6.6L142.14,373l-61-54.75-26,29,89.26,80.06,49-53-1.6-2.23a76.07,76.07,0,0,1-13.13-30.85" transform="translate(-0.71 0)" style="fill:#161616"/></g></g>
<g id="letters">
<path id="R" d="M521.29,329,554,173.88h77.6q15.4,0,26.13,6.62a36.16,36.16,0,0,1,15.18,18.55q4.44,11.92.84,28.06a57.63,57.63,0,0,1-13.61,27.46,64.57,64.57,0,0,1-25.41,17.58,18.14,18.14,0,0,1,4,5.9,55.88,55.88,0,0,1,2.52,9L650.87,329H610.4l-9.15-39.51c-.81-3.69-2.13-6.21-4-7.58s-4.86-2.05-9-2.05H570.42L560.07,329Zm55.39-79h28.67q11.31,0,18.91-5.66t10-17.22q2.64-11.56-.36-17.46t-17-5.9H586.56Z" transform="translate(-0.71 0)" style="fill:#fff"/>
<path id="U" d="M795,173.87l-19.52,92.48c-2.24,10.8-6.42,18.79-12.52,24.11s-15.09,7.94-27,7.94q-17.61,0-23.22-7.94c-3.81-5.32-4.54-13.31-2.3-24.11L730,173.87H691.19L670.94,270c-2.55,12.37-1.67,23.13,2.66,32.36s11.33,16.39,21.09,21.45,21.14,7.57,34.29,7.57q34.44,0,56.11-15T813.53,270l20.25-96.13Z" transform="translate(-0.71 0)" style="fill:#fff"/>
<polygon id="N-3" points="775.12 490.92 807.87 335.81 841.11 335.81 887.59 428.54 907.1 335.81 946.12 335.81 913.36 490.92 879.89 490.92 833.4 398.43 813.89 490.92 775.12 490.92" style="fill:#fff"/>
<polygon id="N-2" points="808.33 329.04 841.08 173.93 874.32 173.93 920.8 266.65 940.31 173.93 979.33 173.93 946.57 329.04 913.1 329.04 866.61 236.54 847.1 329.04 808.33 329.04" style="fill:#fff"/>
<polygon id="M" points="487.06 490.92 519.82 335.81 556.67 335.81 580.76 421.79 640.73 335.81 680.23 335.81 647.47 490.92 608.69 490.92 627.48 401.8 583.65 464.42 562.21 464.42 544.63 401.8 525.84 490.92 487.06 490.92" style="fill:#fff"/>
<path id="A" d="M628.85,490.91l92-155.1h41.91l26.49,155.1H751.68l-6.5-35.16H692l-21.2,35.16Zm74.42-63.82H744l-8.92-53.95Z" transform="translate(-0.71 0)" style="fill:#fff"/>
<polygon id="N-1" points="907.29 329.04 940.04 173.93 973.28 173.93 1019.76 266.65 1039.27 173.93 1078.29 173.93 1045.53 329.04 1012.06 329.04 965.57 236.54 946.06 329.04 907.29 329.04" style="fill:#fff"/>
</g></svg>