<svg id="Layer_1" data-name="Layer 1" xmlns="http://www.w3.org/2000/svg" viewBox="0 0 148.7 148.7"><defs><style>.cls-1{fill:#fff;}</style></defs><title>email</title><circle cx="74.35" cy="74.35" r="74.35"/><path class="cls-1" d="M34.05,39.18l34.49,39a10.23,10.23,0,0,0,7.61,3.58,9.55,9.55,0,0,0,7.61-3.58l34-38.52.9-.89a15.86,15.86,0,0,0-4.48-.9H38.53c-1.79.45-3.14.9-4.48,1.35Z" transform="translate(-1.8 -2)"/><path class="cls-1" d="M124.07,43.65a1.58,1.58,0,0,1-.44.9l-34,38.52c-3.14,4-8.07,5.82-13.44,5.82a19.44,19.44,0,0,1-13.44-5.82l-34.48-39v-.45a14.58,14.58,0,0,0-1.8,5.83v52.85A11.86,11.86,0,0,0,38.08,114h75.69a11.86,11.86,0,0,0,11.65-11.64V49.92C125.87,47.68,125,45.45,124.07,43.65Z" transform="translate(-1.8 -2)"/></svg>