<svg id="Layer_1" data-name="Layer 1" xmlns="http://www.w3.org/2000/svg" viewBox="0 0 148 148"><defs><style>.cls-1{fill:#fff;}</style></defs><title>instagram</title><circle cx="74" cy="74" r="74"/><path class="cls-1" d="M99.43,48.17a4.9,4.9,0,1,0,4.9,4.9A4.94,4.94,0,0,0,99.43,48.17Z" transform="translate(-2.25 -2.25)"/><path class="cls-1" d="M76.7,54.85a21.4,21.4,0,1,0,21.39,21.4A21.4,21.4,0,0,0,76.7,54.85Zm0,35.22A13.82,13.82,0,1,1,90.52,76.25,13.89,13.89,0,0,1,76.7,90.07Z" transform="translate(-2.25 -2.25)"/><path class="cls-1" d="M93.64,119.49H58.86a26.35,26.35,0,0,1-26.3-26.3V58.42a26.34,26.34,0,0,1,26.3-26.3H93.64a26.35,26.35,0,0,1,26.3,26.3V93.19C119.49,107.9,107.9,119.49,93.64,119.49ZM58.86,41A17.89,17.89,0,0,0,41,58.86V93.64a17.89,17.89,0,0,0,17.83,17.83H93.64a17.89,17.89,0,0,0,17.83-17.83V58.86A17.89,17.89,0,0,0,93.64,41Z" transform="translate(-2.25 -2.25)"/></svg>