<svg id="Layer_1" data-name="Layer 1" xmlns="http://www.w3.org/2000/svg" viewBox="0 0 147.28 147.28"><defs><style>.cls-1{fill:#161616;}.cls-2{fill:#fff;}</style></defs><title>linked-in</title><circle class="cls-1" cx="73.64" cy="73.64" r="73.63"/><path class="cls-2" d="M35.84,55.6h18v57.91h-18Zm9-28.74A10.33,10.33,0,1,1,34.5,37.19,10.75,10.75,0,0,1,44.82,26.86m20.65,86.65h18V84.78C83.43,77.14,84.78,70,94.21,70c9,0,9.42,8.53,9.42,15.27v28.28h18V81.63c0-15.71-3.14-27.38-21.55-27.38A19.82,19.82,0,0,0,83,63.68h-.45V55.6H65.47Z" transform="translate(-2.61 -2.61)"/></svg>